#!OML:ASF F:\VICON\USERDATA\INSTALL\Justin_Nancy\Justin_Nancy.ASF
:FULLY-SPECIFIED
:DEGREES
33
root -11.2044 16.0227 -19.129 -8.92341 -1.19561 0.458449
lowerback 18.2989 0.660899 -4.12506
upperback 3.93229 0.354746 3.80538
thorax -6.05179 0.257719 6.38418
lowerneck -17.0502 -1.19405 -8.56386
upperneck 20.1007 0.37684 1.30321
head 9.14081 -0.339713 1.91054
rclavicle 7.45443e-015 1.11319e-014
rhumerus -53.6134 12.8053 -93.869
rradius 107.274
rwrist -14.8852
rhand -18.6064 26.1196
rfingers 7.12502
rthumb 7.68503 -3.72074
lclavicle 7.45443e-015 1.11319e-014
lhumerus -48.3435 -11.0802 95.2051
lradius 82.4673
lwrist 18.0243
lhand -24.4823 7.40698
lfingers 7.12502
lthumb 2.01154 37.3772
rfemur -37.0016 -2.58455 10.8049
rtibia 45.3364
rfoot 2.82495 2.46232
rtoes -16.5795
lfemur -24.8356 5.15021 -29.552
ltibia 69.7016
lfoot -11.4247 0.26218
ltoes -16.0023
34
root -11.225 16.0692 -18.6812 -8.94705 -0.339685 -0.447857
lowerback 18.4327 0.439649 -3.81598
upperback 4.07791 0.152395 4.28493
thorax -5.9383 0.1502 6.77968
lowerneck -16.6636 -1.25248 -8.35123
upperneck 19.1923 0.312026 0.728622
head 8.76526 -0.390128 1.66123
rclavicle -1.16289e-014 1.03368e-014
rhumerus -54.0436 13.6178 -94.3321
rradius 108.326
rwrist -14.0319
rhand -17.6972 26.9674
rfingers 7.12502
rthumb 8.56253 -2.83895
lclavicle -1.16289e-014 1.03368e-014
lhumerus -48.4918 -11.4765 95.7806
lradius 84.7126
lwrist 19.7761
lhand -23.9432 6.90533
lfingers 7.12502
lthumb 2.5322 36.87
rfemur -35.0813 -1.89235 10.8731
rtibia 40.1666
rfoot 5.65286 3.34763
rtoes -16.1783
lfemur -25.748 5.60627 -28.1597
ltibia 72.8334
lfoot -7.42207 -2.31298
ltoes -16.3442
35
root -11.2604 16.0917 -18.2321 -8.86685 0.763596 -1.7425
lowerback 18.5496 0.16009 -3.29603
upperback 4.07494 -0.0712551 4.91793
thorax -5.97217 0.0388399 7.23162
lowerneck -16.3293 -1.14089 -8.11438
upperneck 18.6338 0.438403 0.362042
head 8.51074 -0.335254 1.50885
rclavicle -7.15625e-015 -1.51076e-014
rhumerus -54.4991 14.4605 -94.7961
rradius 109.215
rwrist -13.1616
rhand -17.4503 27.5208
rfingers 7.12502
rthumb 8.80086 -2.2757
lclavicle -7.15625e-015 -1.51076e-014
lhumerus -48.8663 -12.1263 96.4647
lradius 87.0277
lwrist 20.9589
lhand -23.3937 6.57887
lfingers 7.12502
lthumb 3.06291 36.5366
rfemur -33.3614 -0.80897 11.1973
rtibia 35.7308
rfoot 8.72585 1.47629
rtoes -17.1199
lfemur -27.3624 6.06971 -26.2059
ltibia 75.9544
lfoot -2.49425 -5.20713
ltoes -14.539
36
root -11.2717 16.1247 -17.7592 -9.20442 5.16908 -3.11322
lowerback 18.6231 -1.21197 -2.10486
upperback 4.26834 -1.61713 5.33805
thorax -5.5922 -0.747648 7.35058
lowerneck -16.9254 -1.16045 -7.97252
upperneck 18.5254 0.427959 0.380123
head 8.57999 -0.32578 1.4903
rclavicle -4.96962e-015 -3.33958e-014
rhumerus -54.2862 15.1565 -95.181
rradius 109.866
rwrist -12.2546
rhand -17.3509 27.6349
rfingers 7.12502
rthumb 8.89674 -2.15758
lclavicle -4.96962e-015 -3.33958e-014
lhumerus -48.8015 -13.5058 97.1434
lradius 89.1635
lwrist 20.988
lhand -23.1009 7.13061
lfingers 7.12502
lthumb 3.34564 37.0841
rfemur -30.1463 -1.86763 10.632
rtibia 32.4228
rfoot 10.7477 -1.55338
rtoes -17.8512
lfemur -28.5781 3.49266 -24.815
ltibia 78.52
lfoot 2.47342 -8.03289
ltoes -8.50567
37
root -11.3035 16.1385 -17.2784 -9.58881 8.57442 -4.51947
lowerback 18.3353 -2.09824 -1.26471
upperback 4.54855 -2.59567 5.85871
thorax -5.01102 -1.25768 7.62247
lowerneck -16.6765 -1.41537 -7.87191
upperneck 17.64 0.0393317 0.228794
head 8.25295 -0.491534 1.37075
rclavicle 4.17448e-015 8.74653e-015
rhumerus -54.0645 15.7434 -95.4812
rradius 110.441
rwrist -10.7986
rhand -17.1903 27.6632
rfingers 7.12502
rthumb 9.05176 -2.1226
lclavicle 4.17448e-015 8.74653e-015
lhumerus -48.742 -15.0162 97.8292
lradius 91.3293
lwrist 20.2142
lhand -21.9376 8.16949
lfingers 7.12502
lthumb 4.46902 38.1023
rfemur -27.5114 -1.92227 10.427
rtibia 30.3041
rfoot 12.2949 -4.01876
rtoes -15.7471
lfemur -29.7364 1.84203 -23.1748
ltibia 80.6265
lfoot 2.1321 -9.33736
ltoes -12.3538
38
root -11.3421 16.1355 -16.7954 -10.0219 10.9736 -5.7252
lowerback 18.3191 -2.62848 -0.431157
upperback 4.44424 -3.11482 6.03392
thorax -5.07883 -1.5132 7.44736
lowerneck -15.7578 -1.6053 -7.63427
upperneck 17.1526 -0.411988 0.398712
head 7.94314 -0.657019 1.33644
rclavicle 1.11319e-014 3.18055e-014
rhumerus -54.6042 15.9788 -96.5308
rradius 111.32
rwrist -10.6169
rhand -17.2034 28.0106
rfingers 7.12502
rthumb 9.03907 -1.77572
lclavicle 1.11319e-014 3.18055e-014
lhumerus -49.7219 -16.5081 98.2098
lradius 93.7561
lwrist 18.9468
lhand -20.6377 8.09198
lfingers 7.12502
lthumb 5.72412 37.9947
rfemur -25.6839 -1.56234 10.4508
rtibia 29.7516
rfoot 12.1548 -4.20307
rtoes -13.1827
lfemur -30.7277 1.01461 -21.6896
ltibia 82.1784
lfoot 0.634985 -9.41952
ltoes -12.863
39
root -11.3844 16.1044 -16.3228 -10.4641 12.8949 -6.40776
lowerback 18.383 -2.76741 -0.312962
upperback 4.38301 -3.25186 6.21389
thorax -5.15616 -1.57562 7.61615
lowerneck -15.3158 -1.79633 -7.83782
upperneck 17.255 -0.773728 0.954007
head 7.91546 -0.788716 1.51571
rclavicle -1.59028e-015 1.66979e-014
rhumerus -54.7901 16.3127 -97.2541
rradius 111.785
rwrist -11.2545
rhand -16.888 28.1204
rfingers 7.12502
rthumb 9.34337 -1.65254
lclavicle -1.59028e-015 1.66979e-014
lhumerus -50.502 -17.9871 98.715
lradius 96.0097
lwrist 17.7677
lhand -19.346 6.78222
lfingers 7.12502
lthumb 6.97113 36.6474
rfemur -24.0634 -1.66642 10.3685
rtibia 30.5297
rfoot 10.207 -3.27106
rtoes -16.1245
lfemur -31.7176 0.512221 -20.8732
ltibia 83.2186
lfoot -0.212362 -9.00106
ltoes -11.1019
40
root -11.4249 16.0542 -15.8537 -10.8296 14.4239 -6.53972
lowerback 18.5244 -2.67855 -0.642806
upperback 4.30973 -3.18634 6.17736
thorax -5.30204 -1.53244 7.76821
lowerneck -14.8461 -1.96358 -7.72817
upperneck 17.3315 -1.11497 1.18074
head 7.87249 -0.922796 1.53739
rclavicle -2.65378e-014 4.6118e-014
rhumerus -54.6662 16.6435 -97.8177
rradius 112.027
rwrist -12.0649
rhand -15.7391 28.4496
rfingers 7.12502
rthumb 10.4519 -1.27062
lclavicle -2.65378e-014 4.6118e-014
lhumerus -51.2388 -19.3483 99.099
lradius 98.0957
lwrist 16.5139
lhand -18.4732 5.38582
lfingers 7.12502
lthumb 7.81365 35.2214
rfemur -22.8938 -1.93358 9.94098
rtibia 32.434
rfoot 7.09244 -2.97233
rtoes -19.8517
lfemur -32.6868 0.488603 -20.758
ltibia 83.6905
lfoot -0.440398 -8.91248
ltoes -9.11798
41
root -11.4594 15.9941 -15.3808 -11.2836 15.83 -5.97458
lowerback 18.9384 -2.42527 -1.49919
upperback 4.25201 -3.02271 5.85914
thorax -5.57793 -1.43139 7.9119
lowerneck -14.359 -2.11106 -7.39335
upperneck 17.4865 -1.43808 1.19919
head 7.84869 -1.0557 1.45615
rclavicle 3.6477e-014 2.38542e-014
rhumerus -54.904 16.9401 -98.7783
rradius 112.125
rwrist -10.519
rhand -17.2949 26.7259
rfingers 7.12502
rthumb 8.95075 -3.06427
lclavicle 3.6477e-014 2.38542e-014
lhumerus -52.2229 -20.5191 99.3938
lradius 100.286
lwrist 15.2493
lhand -18.1448 4.5631
lfingers 7.12502
lthumb 8.13063 34.3867
rfemur -21.6391 -2.33066 8.87681
rtibia 35.0999
rfoot 3.42181 -2.71501
rtoes -20.9978
lfemur -33.2744 0.894522 -21.5803
ltibia 83.6947
lfoot -1.03613 -8.54998
ltoes -10.2168
42
root -11.4924 15.9257 -14.9176 -11.9349 17.1778 -5.75955
lowerback 19.5472 -2.09307 -2.00554
upperback 4.39149 -2.68426 5.70489
thorax -5.78096 -1.25174 7.996
lowerneck -14.4625 -2.37413 -7.26288
upperneck 17.7604 -1.82834 1.26126
head 7.97454 -1.23039 1.41205
rclavicle 1.17283e-014 1.19271e-014
rhumerus -54.8691 16.8868 -99.2768
rradius 112.473
rwrist -9.67105
rhand -17.8448 25.4608
rfingers 7.12502
rthumb 8.4201 -4.35132
lclavicle 1.17283e-014 1.19271e-014
lhumerus -52.8841 -21.6241 99.6223
lradius 102.492
lwrist 14.5785
lhand -17.3886 4.51959
lfingers 7.12502
lthumb 8.86039 34.3136
rfemur -20.3821 -2.72093 8.27758
rtibia 38.0733
rfoot -0.577292 -2.19241
rtoes -23.1463
lfemur -33.8661 1.40203 -22.1401
ltibia 83.5043
lfoot -2.32807 -7.60685
ltoes -9.08635
